<?xml version="1.0" encoding="iso-8859-1"?>
<!-- Generator: Adobe Illustrator 16.0.0, SVG Export Plug-In . SVG Version: 6.00 Build 0)  -->
<!DOCTYPE svg PUBLIC "-//W3C//DTD SVG 1.1//EN" "http://www.w3.org/Graphics/SVG/1.1/DTD/svg11.dtd">
<svg xmlns="http://www.w3.org/2000/svg" xmlns:xlink="http://www.w3.org/1999/xlink" version="1.1" id="Capa_1" x="0px" y="0px" width="64px" height="64px" viewBox="0 0 30.965 30.965" style="enable-background:new 0 0 30.965 30.965;" xml:space="preserve">
<g>
	<g>
		<path d="M10.366,18.426c0.013-0.191,0.056-0.385,0.077-0.578C7.92,19.082,5.25,20.48,4.538,21.191    c-1.446,1.447-1.446,3.793,0,5.238c1.443,1.445,3.789,1.445,5.234-0.002c0.317-0.318,0.773-1.029,1.288-1.939    c-0.465-1.574-0.79-3.33-0.79-5.195C10.27,19.045,10.299,18.768,10.366,18.426z" fill="#D80027"/>
		<path d="M11.542,13.647c0.344-0.841,0.735-1.683,1.229-2.521C12.275,9.911,9.36,5.893,5.755,3.725    c-0.443,0.181-0.858,0.45-1.218,0.811c-1.446,1.444-1.446,3.79,0,5.236C5.354,10.588,8.747,12.307,11.542,13.647z" fill="#D80027"/>
		<path d="M25.211,3.725c-3.605,2.168-6.52,6.188-7.016,7.401c0.484,0.828,0.896,1.67,1.24,2.514c2.793-1.34,6.174-3.053,6.99-3.868    c1.447-1.446,1.447-3.792,0.004-5.236C26.07,4.175,25.654,3.905,25.211,3.725z" fill="#D80027"/>
		<path d="M10.52,17.277c0.165-1.088,0.461-2.185,0.885-3.282c-2.925-1.028-6.542-2.215-7.699-2.215C1.661,11.78,0,13.439,0,15.482    c0,2.041,1.66,3.701,3.705,3.701C4.749,19.184,7.79,18.221,10.52,17.277z" fill="#D80027"/>
		<path d="M27.262,11.78c-1.156,0-4.764,1.182-7.684,2.21c0.424,1.104,0.721,2.207,0.887,3.293c2.727,0.941,5.756,1.9,6.797,1.9    c2.043,0,3.703-1.66,3.703-3.701C30.965,13.439,29.305,11.78,27.262,11.78z" fill="#D80027"/>
		<path d="M20.541,17.857c0.02,0.188,0.045,0.377,0.057,0.562c0.066,0.326,0.098,0.609,0.098,0.871c0,1.865-0.322,3.621-0.789,5.197    c0.516,0.91,0.971,1.621,1.287,1.938c1.447,1.447,3.791,1.447,5.238,0.002c1.443-1.443,1.443-3.791-0.004-5.236    C25.717,20.482,23.059,19.09,20.541,17.857z" fill="#D80027"/>
		<path d="M17.086,11.367c-0.424-0.694,4.42-7.925,10.066-9.727c-6.51,0.95-11.376,5.661-11.67,5.951    c-0.011,0.01-0.027,0.027-0.027,0.027c0.011-0.01,0.017-0.017,0.027-0.026c0.011,0.011,0.019,0.018,0.029,0.026    c0,0-0.019-0.019-0.027-0.027c1.285-1.241,0.918-0.185-0.002,1.747c-0.919-1.932-1.284-2.988,0-1.747    c-0.292-0.29-5.16-5.001-11.671-5.951c5.647,1.802,10.493,9.031,10.068,9.727c-1.166,1.913-2.272,4.427-2.444,7.199    c-0.056,0.273-0.09,0.52-0.09,0.727c0,6.443,4.109,11.672,4.109,11.672s0.017-0.023,0.027-0.039    c0.014,0.016,0.029,0.039,0.029,0.039s4.107-5.229,4.107-11.672c0-0.207-0.031-0.453-0.09-0.727    C19.357,15.794,18.254,13.28,17.086,11.367z" fill="#D80027"/>
		<circle cx="15.511" cy="2.825" r="2.825" fill="#D80027"/>
	</g>
</g>
<g>
</g>
<g>
</g>
<g>
</g>
<g>
</g>
<g>
</g>
<g>
</g>
<g>
</g>
<g>
</g>
<g>
</g>
<g>
</g>
<g>
</g>
<g>
</g>
<g>
</g>
<g>
</g>
<g>
</g>
</svg>
